<?xml version="1.0" encoding="utf-8"?>
<!-- Generator: Adobe Illustrator 16.0.0, SVG Export Plug-In . SVG Version: 6.00 Build 0)  -->
<!DOCTYPE svg PUBLIC "-//W3C//DTD SVG 1.1//EN" "http://www.w3.org/Graphics/SVG/1.1/DTD/svg11.dtd">
<svg version="1.1" id="Layer_1" xmlns="http://www.w3.org/2000/svg" xmlns:xlink="http://www.w3.org/1999/xlink" x="0px" y="0px"
	 width="100px" height="15px" viewBox="0 0 100 15" enable-background="new 0 0 100 15" xml:space="preserve">
<path fill="#C1C2C2" d="M34.813,7.5c0,3.595-2.914,6.509-6.509,6.509c-3.594,0-6.508-2.914-6.508-6.509s2.914-6.509,6.508-6.509
	C31.898,0.991,34.813,3.905,34.813,7.5"/>
<path fill="#C1C2C2" d="M56.509,7.5c0,3.595-2.913,6.509-6.509,6.509c-3.595,0-6.509-2.914-6.509-6.509S46.405,0.991,50,0.991
	C53.596,0.991,56.509,3.905,56.509,7.5"/>
<circle fill="#C1C2C2" cx="71.695" cy="7.5" r="6.509"/>
<circle fill="#C1C2C2" cx="93.391" cy="7.5" r="6.509"/>
<g>
	<path fill="#231F20" d="M6.607,14.009c3.596,0,6.509-2.914,6.509-6.509H0.1C0.1,11.095,3.014,14.009,6.607,14.009z"/>
	<path fill="#C1C2C2" d="M6.608,0.991C3.014,0.991,0.1,3.905,0.1,7.5h13.016C13.116,3.905,10.203,0.991,6.608,0.991z"/>
</g>
</svg>
